<svg id="logo" xmlns="http://www.w3.org/2000/svg" width="155.234" height="31.31" viewBox="0 0 155.234 31.31">
  <path id="Path_10" data-name="Path 10" d="M42.289,21H40.375V9.8h1.914Zm9.688,0H50.164V16.492q0-2.242-1.586-2.242a1.727,1.727,0,0,0-1.367.625,2.289,2.289,0,0,0-.539,1.563V21h-1.82V13h1.82v1.328H46.7A2.851,2.851,0,0,1,49.3,12.813a2.411,2.411,0,0,1,1.992.852,3.79,3.79,0,0,1,.688,2.445Zm1.719-.25V19.07a3.616,3.616,0,0,0,2.242.774q1.641,0,1.641-.969a.747.747,0,0,0-.141-.461,1.3,1.3,0,0,0-.383-.344,2.837,2.837,0,0,0-.562-.266l-.719-.266a7.936,7.936,0,0,1-.891-.414,2.84,2.84,0,0,1-.656-.492A1.948,1.948,0,0,1,53.836,16a2.317,2.317,0,0,1-.133-.82,1.876,1.876,0,0,1,.274-1.016,2.322,2.322,0,0,1,.734-.742,3.392,3.392,0,0,1,1.047-.453,4.678,4.678,0,0,1,1.211-.156,5.506,5.506,0,0,1,1.984.336v1.586a3.345,3.345,0,0,0-1.937-.578,2.577,2.577,0,0,0-.625.07,1.6,1.6,0,0,0-.469.2.945.945,0,0,0-.3.3.7.7,0,0,0-.109.383.827.827,0,0,0,.109.438,1.042,1.042,0,0,0,.32.32,3.406,3.406,0,0,0,.516.25q.3.109.7.242a9.66,9.66,0,0,1,.922.43,3.025,3.025,0,0,1,.7.5,1.893,1.893,0,0,1,.445.641,2.148,2.148,0,0,1,.156.859,1.974,1.974,0,0,1-.281,1.063,2.348,2.348,0,0,1-.75.75,3.444,3.444,0,0,1-1.086.438A5.956,5.956,0,0,1,53.7,20.75ZM68.078,21H66.266V19.734h-.031a2.609,2.609,0,0,1-2.453,1.453q-2.836,0-2.836-3.406V13h1.813v4.594q0,2.156,1.664,2.156a1.67,1.67,0,0,0,1.32-.594,2.265,2.265,0,0,0,.523-1.555V13h1.813Zm7.008-6.273a1.5,1.5,0,0,0-.945-.258A1.618,1.618,0,0,0,72.8,15.2a3.249,3.249,0,0,0-.539,1.977V21H70.445V13h1.813v1.648h.031a2.775,2.775,0,0,1,.813-1.312,1.848,1.848,0,0,1,1.234-.477,1.528,1.528,0,0,1,.75.148ZM82.508,21H80.75V19.75h-.031a2.647,2.647,0,0,1-2.43,1.438,2.573,2.573,0,0,1-1.852-.641,2.248,2.248,0,0,1-.664-1.7q0-2.266,2.609-2.641l2.375-.336q0-1.711-1.625-1.711a3.86,3.86,0,0,0-2.578.984V13.563a5.622,5.622,0,0,1,2.922-.75q3.031,0,3.031,2.984Zm-1.75-3.93-1.68.234a2.657,2.657,0,0,0-1.18.383,1.1,1.1,0,0,0-.391.969,1.082,1.082,0,0,0,.359.836,1.433,1.433,0,0,0,.977.32,1.788,1.788,0,0,0,1.367-.578,2.069,2.069,0,0,0,.547-1.469ZM91.852,21H90.039V16.492q0-2.242-1.586-2.242a1.727,1.727,0,0,0-1.367.625,2.289,2.289,0,0,0-.539,1.563V21h-1.82V13h1.82v1.328h.031a2.851,2.851,0,0,1,2.594-1.516,2.411,2.411,0,0,1,1.992.852,3.79,3.79,0,0,1,.688,2.445Zm7.945-.367a4.47,4.47,0,0,1-2.273.555,3.857,3.857,0,0,1-2.875-1.109,3.957,3.957,0,0,1-1.094-2.891,4.335,4.335,0,0,1,1.172-3.172,4.209,4.209,0,0,1,3.148-1.2,4.59,4.59,0,0,1,1.93.383v1.688a2.923,2.923,0,0,0-1.781-.625,2.469,2.469,0,0,0-1.883.781,2.828,2.828,0,0,0-.734,2.031,2.719,2.719,0,0,0,.688,1.961,2.467,2.467,0,0,0,1.859.719,2.9,2.9,0,0,0,1.844-.7Zm8.578-3.141h-5.453a2.311,2.311,0,0,0,.68,1.711,2.555,2.555,0,0,0,1.8.6,3.954,3.954,0,0,0,2.352-.766V20.5a5.374,5.374,0,0,1-2.891.688,3.6,3.6,0,0,1-2.773-1.086,4.383,4.383,0,0,1-1-3.07,4.255,4.255,0,0,1,1.1-3.039,3.621,3.621,0,0,1,2.75-1.18,3.154,3.154,0,0,1,2.539,1.055,4.379,4.379,0,0,1,.9,2.93Zm-1.75-1.281a2.318,2.318,0,0,0-.461-1.516,1.536,1.536,0,0,0-1.25-.547,1.771,1.771,0,0,0-1.328.57,2.619,2.619,0,0,0-.664,1.492Zm9.937.727V21h-1.851V9.8h3.4a4.5,4.5,0,0,1,2.993.9,3.134,3.134,0,0,1,1.062,2.531,3.5,3.5,0,0,1-1.109,2.672,4.214,4.214,0,0,1-3,1.039Zm0-5.609v4.094h1.2a2.662,2.662,0,0,0,1.82-.555,1.979,1.979,0,0,0,.625-1.562q0-1.977-2.3-1.977Zm10.305,9.859a3.987,3.987,0,0,1-2.961-1.117,4.073,4.073,0,0,1-1.1-2.976,4.224,4.224,0,0,1,1.148-3.148,4.25,4.25,0,0,1,3.109-1.133,3.838,3.838,0,0,1,2.922,1.1,4.255,4.255,0,0,1,1.047,3.055,4.2,4.2,0,0,1-1.133,3.07A4.049,4.049,0,0,1,126.867,21.188Zm.086-6.93a2.071,2.071,0,0,0-1.68.742,3.11,3.11,0,0,0-.617,2.047,2.946,2.946,0,0,0,.625,1.984,2.1,2.1,0,0,0,1.672.719,1.98,1.98,0,0,0,1.641-.711,3.135,3.135,0,0,0,.578-2.024,3.181,3.181,0,0,0-.578-2.039A1.971,1.971,0,0,0,126.953,14.258Zm10.57.469a1.5,1.5,0,0,0-.945-.258,1.62,1.62,0,0,0-1.344.727,3.252,3.252,0,0,0-.539,1.977V21h-1.812V13H134.7v1.648h.032a2.771,2.771,0,0,1,.812-1.312,1.848,1.848,0,0,1,1.234-.477,1.524,1.524,0,0,1,.75.148Zm5.969,6.188a3.14,3.14,0,0,1-1.4.266q-2.328,0-2.328-2.234V14.422H138.43V13h1.336V11.148l1.812-.516V13h1.914v1.422h-1.914v4a1.575,1.575,0,0,0,.258,1.016,1.07,1.07,0,0,0,.859.3,1.246,1.246,0,0,0,.8-.266Zm7.7.086h-1.757V19.75h-.032a2.646,2.646,0,0,1-2.429,1.438,2.574,2.574,0,0,1-1.852-.641,2.247,2.247,0,0,1-.664-1.7q0-2.266,2.609-2.641l2.375-.336q0-1.711-1.625-1.711a3.861,3.861,0,0,0-2.578.984V13.563a5.624,5.624,0,0,1,2.922-.75q3.031,0,3.031,2.984Zm-1.75-3.93-1.679.234a2.659,2.659,0,0,0-1.18.383,1.1,1.1,0,0,0-.391.969,1.081,1.081,0,0,0,.36.836,1.43,1.43,0,0,0,.976.32,1.787,1.787,0,0,0,1.367-.578,2.067,2.067,0,0,0,.547-1.469ZM155.234,21h-1.82V9.156h1.82Z"/>
  <path id="Path_11" data-name="Path 11" d="M13.824,0c.257.074.517.139.77.224A3.829,3.829,0,0,1,16.935,4.51a3.532,3.532,0,0,1-3.544,3.048A3.521,3.521,0,0,1,10.237,4.73,3.822,3.822,0,0,1,12.4.268c.295-.114.609-.18.914-.268Z" fill="#713bdb"/>
  <path id="Path_12" data-name="Path 12" d="M14.166,25.307a8.171,8.171,0,0,0,4.387-2.759,8.708,8.708,0,0,0,2-5.178,7.013,7.013,0,0,0-.517-3.207c-.278-.646-.054-1.079.39-1.711a25.075,25.075,0,0,1,.865,2.507,9.389,9.389,0,0,1-6.885,11.269.71.71,0,0,0-.6.674c-.2,1.326-.411,2.649-.621,3.973-.021.131-.061.259-.1.435-.3-1.469-.588-2.886-.87-4.3-.062-.315-.176-.478-.556-.486A9.48,9.48,0,0,1,5.047,10.632c.523.6.542.873.121,1.455A8.53,8.53,0,0,0,9.94,25.319c.591.155,1.211.206,1.936.325-.183-.706-.323-1.27-.475-1.831A53.8,53.8,0,0,0,6.411,11.1,21.46,21.46,0,0,0,.893,4.452,5.239,5.239,0,0,1,0,3.685a13.675,13.675,0,0,1,1.446.127,15.653,15.653,0,0,1,5.662,2.6,41.117,41.117,0,0,1,5.906,4.847c.13.127.27.245.269.17,1.039-.939,2.069-1.888,3.118-2.814a18.278,18.278,0,0,1,7.025-4.192,7.316,7.316,0,0,1,3.813-.164A26,26,0,0,0,18.676,13.5,43.259,43.259,0,0,0,14.166,25.307Z" fill="#713bdb"/>
</svg>
